<svg width="25" height="25" viewBox="0 0 25 25" fill="none" xmlns="http://www.w3.org/2000/svg"><path fill-rule="evenodd" clip-rule="evenodd" d="M19.3944 21.7051C17.4733 23.1462 15.0864 24 12.5 24C9.91402 24 7.5274 23.1465 5.60649 21.7057C5.73116 21.2619 5.85305 20.7914 5.97334 20.3271L5.97336 20.327L5.9734 20.3269C6.05238 20.022 6.13068 19.7198 6.2086 19.4296C6.45159 18.5247 6.69039 17.7386 6.94791 17.2236C7.18178 16.7558 7.65453 16.2695 8.20527 15.8465C8.75033 15.4278 9.31916 15.1111 9.6864 14.9642C10.1156 14.7925 10.3871 14.6584 10.5586 14.5606C11.1465 14.8422 11.805 15 12.5004 15C13.1958 15 13.8544 14.8422 14.4423 14.5605C14.6138 14.6583 14.8853 14.7925 15.3147 14.9642C15.6819 15.1111 16.2507 15.4278 16.7958 15.8465C17.3465 16.2695 17.8193 16.7558 18.0531 17.2236C18.3107 17.7386 18.5495 18.5247 18.7925 19.4296C18.8704 19.7199 18.9487 20.0221 19.0277 20.327L19.0277 20.3271C19.148 20.7912 19.2698 21.2614 19.3944 21.7051ZM20.2395 21.006C20.1602 20.7109 20.0818 20.408 20.0026 20.1024L20.0026 20.1022L20.0025 20.1021C19.9223 19.7924 19.8414 19.48 19.7582 19.1703C19.5179 18.2752 19.2567 17.3946 18.9476 16.7763C18.6148 16.1108 18.0042 15.5138 17.4049 15.0534C16.8 14.5888 16.1522 14.2222 15.6861 14.0357C15.5869 13.996 15.4983 13.9591 15.4193 13.925C16.3869 13.0996 17.0004 11.8714 17.0004 10.5C17.0004 8.01469 14.9857 5.99997 12.5004 5.99997C10.0151 5.99997 8.00038 8.01469 8.00038 10.5C8.00038 11.8715 8.61396 13.0997 9.58158 13.9251C9.50264 13.9592 9.41411 13.9961 9.31501 14.0357C8.84891 14.2222 8.20106 14.5888 7.59611 15.0534C6.99685 15.5138 6.38626 16.1108 6.05349 16.7763C5.74437 17.3946 5.48317 18.2752 5.24282 19.1703C5.15961 19.4801 5.07868 19.7926 4.99846 20.1024L4.99844 20.1024C4.91923 20.4083 4.84071 20.7115 4.76138 21.0068C2.45048 18.9033 1 15.8711 1 12.5C1 6.14873 6.14873 1 12.5 1C18.8513 1 24 6.14873 24 12.5C24 15.8706 22.5499 18.9026 20.2395 21.006ZM25 12.5C25 19.4036 19.4036 25 12.5 25C5.59644 25 0 19.4036 0 12.5C0 5.59644 5.59644 0 12.5 0C19.4036 0 25 5.59644 25 12.5ZM16.0004 10.5C16.0004 12.433 14.4334 14 12.5004 14C10.5674 14 9.00038 12.433 9.00038 10.5C9.00038 8.56697 10.5674 6.99997 12.5004 6.99997C14.4334 6.99997 16.0004 8.56697 16.0004 10.5Z" fill="#000"/></svg>